<?xml version="1.0" standalone="no"?>
<!DOCTYPE svg PUBLIC "-//W3C//DTD SVG 20010904//EN"
 "http://www.w3.org/TR/2001/REC-SVG-20010904/DTD/svg10.dtd">
<svg version="1.0" xmlns="http://www.w3.org/2000/svg"
 width="1280.000000pt" height="1193.000000pt" viewBox="0 0 1280.000000 1193.000000"
 preserveAspectRatio="xMidYMid meet">
<g transform="translate(0.000000,1193.000000) scale(0.100000,-0.100000)"
fill="#000000" stroke="none">
<path d="M765 11909 c-214 -33 -360 -91 -490 -196 -126 -102 -219 -255 -255
-418 -25 -116 -25 -135 4 -288 44 -228 86 -344 276 -761 230 -507 366 -894
434 -1241 30 -147 44 -264 56 -460 7 -123 15 -169 41 -255 30 -99 32 -117 38
-315 l7 -210 42 -96 c23 -53 64 -177 92 -276 57 -205 83 -274 140 -380 134
-248 347 -383 700 -444 122 -21 466 -41 614 -37 58 2 90 -1 93 -8 2 -6 -51
-32 -119 -58 -262 -102 -377 -175 -477 -300 -29 -36 -89 -136 -135 -223 -45
-87 -101 -192 -124 -233 -89 -163 -132 -301 -132 -428 0 -37 9 -121 20 -187
33 -199 26 -247 -55 -425 -65 -142 -75 -173 -75 -222 0 -54 19 -86 88 -150
121 -111 148 -130 204 -137 46 -5 54 -10 72 -40 18 -31 19 -41 9 -129 -14
-130 -10 -140 66 -180 37 -20 70 -46 82 -65 41 -68 15 -197 -60 -292 -92 -117
-96 -124 -95 -184 0 -84 47 -164 158 -271 309 -295 347 -343 402 -505 22 -66
28 -103 32 -207 5 -149 -7 -243 -53 -423 -79 -304 -126 -416 -289 -690 -189
-317 -244 -451 -253 -615 -8 -150 35 -276 143 -413 109 -140 219 -154 294 -37
67 105 111 286 165 690 39 286 59 368 127 505 80 161 188 286 320 372 106 70
199 98 313 97 88 -1 121 -7 315 -59 52 -14 142 -30 200 -35 64 -6 153 -23 230
-45 175 -50 241 -50 379 -1 58 20 138 41 178 46 125 16 183 59 321 239 68 90
107 131 182 188 116 89 206 182 230 237 11 25 21 80 25 141 18 275 64 513 220
1130 133 529 221 848 310 1133 36 114 83 272 106 352 22 80 60 215 84 300 45
163 87 270 104 270 7 0 11 -51 11 -147 0 -284 30 -695 66 -903 45 -262 127
-420 217 -420 78 1 177 83 223 185 55 126 71 253 84 675 7 260 14 348 31 440
12 63 26 120 31 125 14 14 94 -78 122 -140 31 -69 50 -151 81 -350 14 -93 30
-195 36 -225 17 -86 137 -528 257 -950 61 -212 131 -461 156 -555 100 -375 96
-355 131 -746 23 -260 57 -363 145 -442 22 -21 99 -67 172 -102 135 -68 200
-111 219 -148 7 -11 15 -53 20 -93 4 -40 14 -82 21 -94 14 -22 216 -139 289
-166 70 -27 221 -20 490 21 129 20 295 40 369 45 92 6 175 19 260 40 172 43
285 49 369 20 189 -64 315 -221 404 -505 35 -114 55 -246 62 -425 14 -358 50
-622 92 -687 40 -62 147 -123 215 -123 39 0 166 48 215 81 107 74 148 172 148
354 -1 245 -80 449 -358 917 -192 324 -238 426 -272 603 -36 187 -30 365 20
591 41 186 47 195 170 254 106 50 128 70 145 130 9 28 30 49 113 110 159 117
174 156 111 282 -20 39 -46 101 -59 137 -12 36 -34 98 -49 136 -29 79 -34 159
-11 191 8 12 38 31 67 44 87 36 88 39 88 152 0 101 12 151 43 176 9 7 53 20
98 28 80 14 119 33 119 60 0 7 18 33 39 58 65 75 66 146 3 271 -24 49 -37 92
-43 141 -5 43 -22 104 -43 157 -49 118 -49 174 1 288 34 76 38 92 37 169 0
106 -14 143 -129 345 -97 171 -112 210 -125 323 -5 46 -18 99 -31 124 -53 106
-184 188 -454 283 -238 83 -296 107 -292 119 3 8 88 11 268 12 380 2 556 30
763 119 121 53 269 157 376 264 124 124 162 197 196 379 47 246 65 319 99 404
59 145 91 383 125 933 18 287 63 504 179 855 86 259 174 481 297 746 180 391
236 545 280 771 29 154 29 164 4 284 -32 150 -84 245 -195 355 -77 78 -106 99
-187 138 -297 145 -705 150 -1248 16 -540 -134 -1248 -439 -1675 -723 -728
-484 -1369 -1116 -1830 -1807 -286 -430 -475 -818 -641 -1317 -103 -311 -170
-483 -189 -483 -21 0 -77 225 -86 353 -10 128 -17 167 -45 240 l-18 47 73 148
c40 81 111 206 157 279 120 187 233 393 403 733 137 272 190 365 391 679 75
118 134 236 202 406 76 191 101 241 203 400 56 88 109 174 117 190 32 61 98
273 99 316 2 80 11 102 45 111 27 7 37 20 74 100 75 161 91 256 50 293 -20 18
-21 18 -48 -1 -51 -38 -107 -167 -244 -559 -97 -278 -158 -412 -378 -835 -93
-179 -224 -437 -291 -575 -67 -137 -172 -338 -234 -445 -100 -175 -222 -400
-434 -800 -42 -81 -107 -181 -159 -250 -98 -128 -91 -124 -197 -96 -33 9 -89
16 -125 16 l-65 0 -34 58 c-60 100 -151 240 -325 497 -93 137 -205 311 -249
385 -44 74 -112 185 -151 245 -39 61 -103 184 -143 274 -40 90 -84 184 -98
210 -14 25 -46 100 -71 166 -51 130 -108 248 -234 480 -117 217 -165 319 -236
508 -119 314 -244 594 -306 685 -52 75 -106 48 -95 -49 6 -52 53 -175 95 -254
21 -39 33 -51 54 -53 30 -4 33 -10 42 -102 4 -39 22 -88 62 -170 31 -63 97
-209 146 -325 175 -414 302 -646 431 -794 43 -48 67 -90 103 -175 86 -205 179
-375 362 -659 84 -131 140 -232 193 -348 107 -238 231 -484 284 -562 44 -67
55 -100 35 -112 -18 -11 -58 -99 -74 -161 -8 -32 -22 -117 -30 -189 -20 -163
-36 -255 -48 -279 -21 -40 -30 -18 -198 479 -116 342 -184 513 -285 715 -435
867 -1148 1652 -2117 2328 -534 373 -1341 721 -1964 847 -290 59 -503 73 -689
44z m2657 -1380 c193 -97 355 -208 490 -337 98 -94 159 -170 228 -287 45 -77
83 -120 264 -300 135 -134 255 -264 331 -359 65 -82 141 -166 169 -187 28 -21
71 -53 96 -72 90 -66 146 -153 363 -563 116 -220 232 -410 451 -741 91 -138
166 -260 166 -270 0 -33 -31 -117 -51 -138 -16 -17 -31 -19 -103 -17 -107 3
-167 19 -340 91 -187 78 -246 95 -246 68 0 -7 42 -34 93 -60 150 -76 310 -227
382 -359 20 -37 24 -53 16 -61 -7 -7 -160 -13 -483 -19 -720 -11 -1052 -38
-1583 -125 -247 -41 -299 -46 -440 -47 -175 0 -259 12 -444 65 -190 54 -348
130 -433 207 -21 19 -38 42 -38 52 0 27 83 65 235 108 187 52 384 151 569 286
l69 50 -54 14 c-70 18 -159 6 -329 -44 l-125 -37 -204 -1 c-145 -1 -205 2
-208 10 -6 17 183 165 294 231 256 150 523 217 920 232 111 4 205 10 209 13
10 11 -58 67 -121 98 -77 38 -226 76 -372 95 -170 22 -349 19 -559 -10 -358
-50 -564 -67 -564 -47 0 11 303 157 445 215 284 115 450 157 648 164 132 5
147 7 147 23 0 54 -513 177 -755 181 -33 0 -69 4 -79 8 -18 7 -16 10 15 33 53
40 211 116 312 150 70 23 117 32 195 36 56 3 102 9 102 13 0 5 61 9 136 9 150
0 163 7 84 48 -60 30 -106 28 -175 -8 -31 -16 -61 -30 -66 -30 -5 0 -29 16
-54 35 -63 48 -130 65 -265 70 -63 2 -116 8 -118 13 -1 5 28 28 66 50 73 43
97 65 88 80 -3 5 -45 11 -94 14 -95 6 -202 43 -202 71 0 8 54 38 128 71 192
87 182 84 194 63 19 -35 71 -47 194 -47 65 0 115 2 112 5 -2 3 -74 19 -159 36
-105 21 -161 37 -175 50 -15 14 -35 19 -82 19 -33 0 -64 4 -67 10 -3 5 13 21
35 35 46 29 180 85 204 85 29 0 26 19 -9 45 -40 31 -142 74 -247 106 -40 12
-86 28 -102 36 l-30 16 23 18 c47 39 126 53 286 51 83 0 180 -4 218 -7 41 -5
67 -3 67 3 0 16 -102 90 -151 109 -38 15 -77 18 -277 18 -169 0 -232 3 -232
12 0 39 194 139 335 171 138 32 181 35 361 22 265 -19 314 -5 314 89 0 54 -37
139 -104 237 -25 36 -46 70 -46 75 0 18 33 8 132 -42z m6072 -17 c3 -4 -16
-37 -41 -73 -48 -68 -76 -125 -87 -177 -6 -26 -3 -36 18 -57 25 -24 28 -25
171 -25 161 0 178 -8 105 -49 -22 -12 -40 -26 -40 -32 0 -5 68 -9 163 -9 92 0
200 -6 250 -14 145 -24 318 -90 302 -116 -3 -6 -54 -10 -113 -10 -59 0 -147
-5 -197 -11 -92 -11 -250 -52 -272 -70 -24 -21 -2 -36 61 -41 50 -4 363 -67
426 -85 27 -8 -14 -28 -143 -71 -67 -22 -144 -50 -172 -62 -55 -24 -54 -26 31
-49 36 -10 163 -95 179 -120 3 -6 -13 -20 -36 -31 -40 -21 -139 -88 -139 -95
0 -2 35 -4 78 -3 88 0 149 -22 197 -72 l27 -28 -77 -36 c-47 -22 -93 -36 -116
-36 -27 0 -39 -4 -39 -14 0 -25 87 -110 154 -151 36 -22 66 -46 66 -52 0 -10
-60 -13 -252 -15 -190 -2 -252 -6 -255 -15 -6 -18 33 -31 172 -58 67 -13 138
-30 158 -39 56 -23 209 -125 203 -135 -3 -4 -43 -11 -90 -15 -103 -7 -318 -47
-441 -80 -120 -33 -278 -89 -282 -101 -5 -15 74 -61 143 -84 34 -11 128 -29
210 -41 278 -38 309 -46 459 -113 114 -51 445 -224 465 -243 24 -23 -21 -18
-129 16 -152 47 -201 50 -674 45 -467 -5 -580 -14 -717 -57 -60 -19 -75 -28
-75 -43 0 -19 10 -20 155 -26 486 -20 859 -147 1177 -402 99 -80 95 -82 -147
-81 l-205 1 -171 41 c-124 31 -191 42 -247 42 -42 0 -77 -4 -77 -8 0 -18 158
-161 225 -204 154 -100 384 -195 553 -229 74 -15 79 -29 25 -81 -210 -200
-515 -286 -918 -258 -143 10 -349 38 -590 80 -370 63 -616 81 -1257 88 -426 6
-550 10 -560 20 -10 10 -5 29 32 100 58 115 132 189 271 269 132 76 169 107
152 124 -14 14 -25 10 -268 -104 -193 -91 -270 -117 -344 -117 -91 0 -131 46
-131 147 0 45 10 64 160 298 583 909 666 1031 939 1395 225 300 289 377 480
574 164 169 228 247 281 337 17 30 55 78 83 107 141 146 445 352 632 429 87
36 92 37 99 25z m-3716 -3735 c2 -9 -6 -38 -19 -63 -27 -57 -86 -97 -186 -127
-42 -12 -73 -27 -73 -34 0 -15 -7 -15 101 -4 106 12 156 2 189 -37 14 -16 66
-75 115 -131 132 -151 165 -215 181 -358 l7 -63 -92 -138 c-218 -333 -289
-486 -367 -797 -100 -401 -145 -674 -159 -965 -4 -83 -15 -179 -25 -225 -68
-286 -275 -722 -390 -819 -101 -84 -146 -10 -158 264 -9 184 -18 190 -82 53
-79 -172 -171 -293 -221 -293 -12 0 -28 14 -40 35 -12 19 -23 35 -25 35 -2 0
-10 -14 -19 -30 -9 -17 -22 -30 -30 -30 -8 0 -33 27 -55 60 -105 155 -173 192
-259 139 -63 -38 -63 -31 -2 260 34 162 47 288 34 344 l-8 39 -110 -73 c-167
-109 -253 -175 -327 -247 -58 -57 -68 -63 -74 -47 -10 25 18 128 62 234 94
223 130 374 110 455 l-7 27 -46 -40 c-25 -23 -52 -41 -59 -41 -16 0 -51 48
-60 84 -9 38 -67 98 -87 90 -9 -3 -23 -29 -31 -58 -16 -55 -24 -61 -110 -92
-21 -8 -42 -12 -46 -9 -5 3 7 38 25 78 19 39 62 148 95 241 57 161 99 250 142
305 18 23 18 25 2 34 -10 6 -43 9 -75 9 -160 -2 -311 -92 -609 -362 -161 -146
-289 -250 -308 -250 -18 0 -17 3 63 104 80 100 325 464 325 481 0 7 -9 20 -20
30 -30 28 -25 41 33 78 65 43 121 99 138 139 10 26 10 35 -2 57 -28 51 -72 62
-287 73 -108 5 -201 14 -206 18 -5 5 12 21 39 37 337 198 516 340 589 466 40
68 30 77 -93 78 -110 0 -175 10 -171 24 2 6 48 26 104 46 141 49 201 79 276
135 l65 49 -58 8 c-34 6 -56 14 -54 20 13 39 332 117 475 117 l66 0 -35 36
c-41 44 -117 82 -182 90 -28 4 -46 11 -44 18 2 6 36 23 76 38 192 70 225 151
111 268 -28 28 -50 55 -50 60 0 5 19 11 43 14 23 2 177 21 342 40 165 20 325
38 355 39 30 2 311 3 625 3 537 -1 570 -2 573 -19z m2567 13 c280 -14 516 -61
614 -121 l35 -21 -36 -31 c-20 -18 -41 -42 -47 -54 -29 -57 5 -183 55 -205 18
-8 38 -8 75 0 57 13 73 7 83 -32 3 -12 26 -37 51 -55 25 -18 43 -37 40 -42 -4
-5 -70 -9 -147 -9 l-141 0 24 -26 c50 -55 192 -106 417 -150 12 -2 22 -8 22
-13 0 -4 -28 -28 -62 -52 l-63 -44 115 -6 c63 -3 142 -13 175 -22 141 -38 308
-104 303 -118 -2 -5 -59 -11 -128 -13 -73 -2 -148 -10 -180 -19 -98 -28 -170
-58 -170 -72 0 -7 21 -36 46 -65 47 -51 133 -103 219 -130 75 -24 154 -69 227
-131 90 -76 158 -120 254 -166 41 -20 77 -40 81 -46 7 -11 -2 -10 -217 18
-150 21 -319 16 -368 -9 -68 -35 -66 -89 6 -160 26 -26 74 -64 107 -83 111
-66 109 -64 94 -74 -8 -5 -35 -9 -61 -9 -27 0 -48 -3 -48 -6 0 -13 276 -417
337 -493 89 -109 88 -109 81 -117 -10 -9 -81 38 -260 174 -89 66 -231 160
-329 217 -95 55 -208 128 -252 163 -44 35 -87 62 -96 60 -23 -4 -26 -67 -6
-136 23 -78 83 -204 147 -309 95 -154 160 -274 154 -281 -9 -8 -80 32 -239
135 -70 46 -131 83 -135 83 -5 0 -4 -27 2 -59 12 -73 5 -83 -79 -121 -71 -32
-81 -42 -94 -99 -16 -74 2 -143 74 -286 36 -71 72 -150 80 -174 18 -51 19 -91
4 -91 -5 0 -52 37 -102 83 -119 107 -222 190 -324 261 l-81 57 -7 -56 c-9 -68
6 -194 44 -369 41 -191 46 -226 27 -226 -8 0 -32 11 -52 25 -81 55 -137 21
-174 -108 -36 -123 -50 -163 -64 -182 -13 -18 -15 -18 -45 8 -30 25 -34 26
-59 12 -15 -8 -39 -25 -54 -37 l-28 -22 -27 21 c-39 29 -62 72 -85 160 -10 42
-30 97 -43 123 -24 47 -97 120 -120 120 -9 0 -12 -44 -12 -162 1 -166 -12
-245 -46 -292 -13 -18 -16 -15 -46 41 -18 33 -65 96 -106 141 -86 95 -115 145
-115 201 0 31 -4 41 -21 46 -23 8 -43 50 -93 195 -49 139 -89 319 -146 642
-59 340 -84 461 -145 687 -121 457 -223 717 -385 989 l-62 104 7 61 c18 166
80 332 159 424 50 58 125 93 197 93 45 0 71 -7 125 -34 63 -32 84 -36 84 -17
0 4 -31 29 -69 55 -98 67 -162 125 -177 163 -15 34 -18 85 -7 96 10 11 1074 8
1288 -3z"/>
<path d="M9525 8935 c-5 -2 -22 -6 -37 -9 -16 -4 -28 -11 -28 -16 0 -13 207
-13 214 -1 10 16 -115 37 -149 26z"/>
</g>
</svg>
